<?xml version="1.0" standalone="no"?>
<!DOCTYPE svg PUBLIC "-//W3C//DTD SVG 20010904//EN"
 "http://www.w3.org/TR/2001/REC-SVG-20010904/DTD/svg10.dtd">
<svg version="1.0" xmlns="http://www.w3.org/2000/svg"
 width="512.000000pt" height="512.000000pt" viewBox="0 0 512.000000 512.000000"
 preserveAspectRatio="xMidYMid meet">

<g transform="translate(0.000000,512.000000) scale(0.100000,-0.100000)"
fill="#000000" stroke="none">
<path d="M503 5090 c-231 -61 -408 -232 -480 -466 -17 -56 -18 -147 -18 -2064
0 -1917 1 -2008 18 -2064 73 -236 250 -407 484 -467 74 -18 128 -19 2053 -19
1925 0 1979 1 2053 19 234 60 411 231 484 467 17 56 18 147 18 2064 0 1917 -1
2008 -18 2064 -73 236 -250 407 -484 467 -74 19 -127 19 -2057 18 -1906 0
-1984 -1 -2053 -19z m4015 -190 c192 -27 346 -183 373 -377 6 -41 8 -828 6
-1993 -2 -1748 -4 -1929 -19 -1970 -52 -146 -156 -247 -297 -290 -62 -20 -103
-20 -2021 -20 -1918 0 -1959 0 -2021 20 -141 43 -245 144 -297 290 -15 41 -17
222 -19 1970 -2 1165 0 1952 6 1993 26 189 182 350 364 377 75 11 3849 11
3925 0z"/>
</g>
</svg>
