<?xml version="1.0" standalone="no"?>
<!DOCTYPE svg PUBLIC "-//W3C//DTD SVG 20010904//EN"
 "http://www.w3.org/TR/2001/REC-SVG-20010904/DTD/svg10.dtd">
<svg version="1.0" xmlns="http://www.w3.org/2000/svg"
 width="512.000000pt" height="512.000000pt" viewBox="0 0 512.000000 512.000000"
 preserveAspectRatio="xMidYMid meet">

<g transform="translate(0.000000,512.000000) scale(0.100000,-0.100000)"
fill="#000000" stroke="none">
<path d="M1522 5109 c-84 -16 -134 -51 -292 -204 -171 -165 -213 -211 -239
-264 -52 -105 -55 -250 -6 -361 27 -61 73 -110 854 -892 l826 -828 -826 -827
c-781 -783 -827 -832 -854 -893 -51 -117 -47 -254 13 -375 36 -74 347 -380
424 -418 119 -58 266 -59 380 -1 41 21 289 262 1150 1118 770 764 1112 1110
1142 1156 57 85 76 146 76 240 0 88 -19 153 -65 225 -18 28 -528 545 -1141
1157 -872 869 -1120 1111 -1159 1131 -88 43 -185 56 -283 36z"/>
</g>
</svg>
