<?xml version="1.0" standalone="no"?>
<!DOCTYPE svg PUBLIC "-//W3C//DTD SVG 20010904//EN"
 "http://www.w3.org/TR/2001/REC-SVG-20010904/DTD/svg10.dtd">
<svg version="1.0" xmlns="http://www.w3.org/2000/svg"
 width="512.000000pt" height="512.000000pt" viewBox="0 0 512.000000 512.000000"
 preserveAspectRatio="xMidYMid meet">

<g transform="translate(0.000000,512.000000) scale(0.100000,-0.100000)"
fill="#000000" stroke="none">
<path d="M3405 5106 c-27 -7 -70 -23 -95 -36 -32 -16 -369 -346 -1140 -1114
-602 -600 -1110 -1109 -1129 -1131 -19 -22 -46 -65 -60 -95 -23 -49 -26 -67
-26 -170 0 -103 3 -121 26 -170 14 -30 41 -73 60 -95 19 -22 527 -531 1129
-1131 872 -869 1106 -1097 1147 -1118 75 -37 177 -53 257 -39 125 21 164 47
353 236 148 149 177 183 205 242 31 66 33 76 33 180 0 196 70 112 -884 1068
l-826 827 817 818 c449 449 827 835 840 857 45 73 60 137 56 238 -3 79 -8 102
-36 162 -28 60 -57 93 -205 241 -99 99 -190 181 -214 193 -96 48 -208 62 -308
37z"/>
</g>
</svg>
