<?xml version="1.0" standalone="no"?>
<!DOCTYPE svg PUBLIC "-//W3C//DTD SVG 20010904//EN"
 "http://www.w3.org/TR/2001/REC-SVG-20010904/DTD/svg10.dtd">
<svg version="1.0" xmlns="http://www.w3.org/2000/svg"
 width="512.000000pt" height="512.000000pt" viewBox="0 0 512.000000 512.000000"
 preserveAspectRatio="xMidYMid meet">

<g transform="translate(0.000000,512.000000) scale(0.100000,-0.100000)"
fill="#000000" stroke="none">
<path d="M2188 4230 c-188 -32 -341 -142 -410 -297 -19 -40 -23 -71 -26 -190
l-4 -143 -522 0 c-572 0 -591 -2 -708 -61 -85 -43 -161 -118 -201 -198 l-32
-66 0 -715 0 -715 31 -66 c55 -116 171 -206 314 -244 36 -10 105 -15 196 -15
l141 0 319 -297 c176 -164 332 -308 348 -320 35 -28 66 -29 97 -4 l24 19 5
299 5 298 480 5 c466 5 482 6 539 28 81 30 148 75 200 133 55 61 83 119 97
198 l11 61 59 0 58 0 3 -324 c3 -297 5 -326 21 -344 23 -26 59 -35 89 -23 13
5 187 162 387 349 l364 339 166 6 c176 6 251 22 352 73 60 30 149 112 187 172
64 100 63 80 60 923 -3 587 -6 773 -16 802 -42 122 -172 240 -323 293 l-84 29
-1090 1 c-600 1 -1111 -2 -1137 -6z m2213 -164 c122 -26 214 -91 255 -181 l24
-50 0 -735 c0 -476 -4 -748 -10 -772 -24 -84 -120 -168 -235 -204 -35 -11
-108 -18 -238 -21 l-189 -6 -316 -295 -317 -295 -5 282 c-5 265 -6 284 -24
297 -17 12 -106 14 -535 14 -293 0 -546 5 -586 10 -133 20 -243 89 -289 182
l-26 52 0 745 0 746 24 50 c41 88 133 155 250 180 93 20 2122 21 2217 1z
m-2649 -1193 l3 -568 24 -60 c32 -80 140 -189 231 -234 127 -61 140 -63 548
-68 l373 -5 -7 -37 c-14 -78 -70 -143 -163 -188 l-56 -28 -527 -5 -527 -5 -23
-23 c-22 -22 -23 -29 -28 -261 l-5 -238 -260 244 c-143 134 -271 251 -285 261
-20 14 -56 18 -205 22 -172 5 -183 7 -243 34 -72 33 -136 98 -153 155 -7 24
-9 260 -7 706 3 633 4 672 22 708 26 53 97 107 175 134 65 22 72 22 588 23
l522 0 3 -567z"/>
<path d="M2365 3377 c-67 -32 -140 -114 -160 -180 -32 -107 -11 -206 61 -287
62 -68 111 -92 200 -98 93 -6 158 15 222 73 123 110 131 306 19 423 -61 64
-111 86 -206 90 -75 3 -93 0 -136 -21z m200 -157 c36 -22 65 -73 65 -115 0
-37 -36 -98 -70 -118 -38 -23 -107 -22 -146 2 -34 21 -64 75 -64 115 0 44 27
94 62 116 43 26 111 26 153 0z"/>
<path d="M3195 3388 c-79 -28 -156 -107 -183 -187 -20 -59 -15 -160 12 -216
34 -73 69 -110 138 -144 51 -26 73 -31 133 -31 170 0 295 125 295 296 0 169
-126 295 -295 293 -38 0 -83 -5 -100 -11z m192 -181 c31 -29 37 -41 40 -88 7
-97 -53 -156 -151 -146 -41 4 -55 10 -83 41 -29 32 -33 42 -33 92 0 52 3 59
39 95 36 36 43 39 95 39 50 0 60 -4 93 -33z"/>
<path d="M3999 3386 c-118 -42 -194 -152 -193 -281 0 -92 30 -160 95 -219 60
-54 121 -76 208 -76 158 0 291 135 291 295 0 110 -74 224 -175 271 -58 27
-165 32 -226 10z m179 -166 c80 -49 80 -181 0 -230 -73 -44 -172 -15 -202 60
-20 51 -20 77 2 118 38 70 131 94 200 52z"/>
</g>
</svg>
